# xmcd
#
# Track frame offsets:
#	150
#	15017
#	28982
#	41277
#	55650
#	68135
#	82750
#	93997
#	105925
#	118410
#	132780
#	145907
#	157777
#	168500
#	179850
#	192010
#	208602
#	223070
#	244407
#	262712
#	273852
#	287382
#	299645
#	312037
#
# Disc length: 4373 seconds
#
# Revision: 0
# Processed by: cddbd v1.5.2PL0 Copyright (c) Steve Scherf et al.
# Submitted via: EasyCDDAExtractor 16.0.6.1
#
DISCID=4b111318
DTITLE=Πάνος Νίκος - Κατάρα-Ν. Πάνος
DYEAR=2003
DGENRE=Λαϊκή
TTITLE0=Κατάρα [1972, Ν. Πάνου-Π. Πολίτου]
TTITLE1=Γλυκές καμπάνες [1972, Γ. Μπούρα-Π. Πολίτου-Ν. Κόπανου]
TTITLE2=Ψεύτικα μ' ορκιζόσουνα [1973, Ν. Πάνου-Π. Πολίτου]
TTITLE3=Ο αλήτης της νύχτας [1973, Ν. Πάνου-Π. Πολίτου]
TTITLE4=Ζητιάνος της αγάπης [1973, Ν. Πάνου-Π. Πολίτου]
TTITLE5=Μελαχροινό [1975, Ν. Πάνου-Π. Πολίτου]
TTITLE6=Πού θα πας [1975, Π. Μαρίνου-Π. Πολίτου]
TTITLE7=Γίναμε ξένοι [1975, Π. Μαρίνου]
TTITLE8=Και τι με νοιάζει εμένα [1976, Π. Πάνου-Κ. Νίτσου-Δ. Πολίτη]
TTITLE9=Το γυρισμό της γιορτάζω [1976, Π. Πάνου-Κ. Νίτσου-Δ. Πολίτη]
TTITLE10=Ψεύτικα κλαίει [1976, Π. Πάνου-Κ. Νίτσου-Δ. Πολίτη]
TTITLE11=Θα σ' αγαπώ για πάντα [1979, Γ. Πιά-Ν. Μπαξεβάνη]
TTITLE12=Το δικό σου το κενό [1979, Β. Γιαννούλη-Γ. Πιά]
TTITLE13=Εμείς οι δυό τελειώσαμε [1979, Ν. Πάνου]
TTITLE14=Τα λουλούδια στην κυρία [1984, Δ. Καβαδάτου]
TTITLE15=Και μού λέν' τα σ' αγαπώ [1984, Αγγέλου]
TTITLE16=Και συ έφευγες [1984, Δ. Καβαδάτου-Αγγέλου]
TTITLE17=Δεν είσαι μόνο ταίρι μου [1984, Αγγέλου]
TTITLE18=Προς τιμή σου [1986, Δ. Καβαδάτου]
TTITLE19=Ούτε ένα μήνυμα [1987, Νικηφόρου-Η. Φιλίππου]
TTITLE20=Χειροκροτήστε την [1987, Νικηφόρου-Η. Φιλίππου]
TTITLE21=Απελευθερώθηκα [1989, Γ. Γεωργόπουλου]
TTITLE22=Ανοίξτε μιά σαμπάνια στην κυρία [1990, Δ. Σταμούλη-Λ. Τσώλη]
TTITLE23=Και ξανά [1993, Π. Πάνου-Κ. Γκρίτζαμπη]
EXTD=
EXTT0=
EXTT1=
EXTT2=
EXTT3=
EXTT4=
EXTT5=
EXTT6=
EXTT7=
EXTT8=
EXTT9=
EXTT10=
EXTT11=
EXTT12=
EXTT13=
EXTT14=
EXTT15=
EXTT16=
EXTT17=
EXTT18=
EXTT19=
EXTT20=
EXTT21=
EXTT22=
EXTT23=
PLAYORDER=
